<?xml version="1.0" encoding="iso-8859-1"?>
<!-- Generator: Adobe Illustrator 19.0.0, SVG Export Plug-In . SVG Version: 6.00 Build 0)  -->
<svg xmlns="http://www.w3.org/2000/svg" xmlns:xlink="http://www.w3.org/1999/xlink" version="1.1" id="Capa_1" x="0px" y="0px" viewBox="0 0 512 512" style="enable-background:new 0 0 512 512;" xml:space="preserve" width="512px" height="512px">
<g>
	<g>
		<path d="M266.005,110.585L256,101.62l-10.005,8.965C242.113,114.057,151,196.864,151,301.762    c0,105.249,91.538,182.314,95.435,185.537l9.565,7.939l9.565-7.939C269.462,484.076,361,407.011,361,301.762    C361,196.865,269.887,114.057,266.005,110.585z" fill="#e8eadd"/>
	</g>
</g>
<g>
	<g>
		<rect x="91" y="76.76" width="30" height="30" fill="#e8eadd"/>
	</g>
</g>
<g>
	<g>
		<rect x="241" y="16.762" width="30" height="30" fill="#e8eadd"/>
	</g>
</g>
<g>
	<g>
		<rect x="391" y="76.76" width="30" height="30" fill="#e8eadd"/>
	</g>
</g>
<g>
	<g>
		<rect x="482" y="166.76" width="30" height="30" fill="#e8eadd"/>
	</g>
</g>
<g>
	<g>
		<rect y="166.76" width="30" height="30" fill="#e8eadd"/>
	</g>
</g>
<g>
	<g>
		<path d="M411.464,150.371c-12.799,3.953-28.425,7.903-58.268,22.833c8.771,15.154,16.89,31.871,23.372,49.94    c17.215-7.936,35.205-14.067,53.662-18.457C422.8,175.346,415.907,160.89,411.464,150.371z" fill="#e8eadd"/>
	</g>
</g>
<g>
	<g>
		<path d="M102.309,150.37c-5.757,13.636-11.51,25.578-18.858,54.677c17.873,4.365,35.284,10.399,51.982,18.096    c6.58-18.341,14.844-35.297,23.765-50.63C129.886,158.006,112.689,153.576,102.309,150.37z" fill="#e8eadd"/>
	</g>
</g>
<g>
	<g>
		<path d="M497,226.762c-38.56,0-77.501,9.021-111.907,25.623c3.62,15.804,5.907,32.263,5.907,49.376    c0,88.638-56.182,158.635-86.911,190.307C421.767,469.499,512,365.922,512,241.762v-15H497z" fill="#e8eadd"/>
	</g>
</g>
<g>
	<g>
		<path d="M121,301.762c0-17.113,2.287-33.572,5.907-49.376C92.501,235.783,53.56,226.762,15,226.762H0v15    c0,124.156,90.229,227.733,207.904,250.305C177.195,460.412,121,390.409,121,301.762z" fill="#e8eadd"/>
	</g>
</g>
<g>
</g>
<g>
</g>
<g>
</g>
<g>
</g>
<g>
</g>
<g>
</g>
<g>
</g>
<g>
</g>
<g>
</g>
<g>
</g>
<g>
</g>
<g>
</g>
<g>
</g>
<g>
</g>
<g>
</g>
</svg>
